<mxfile host="app.diagrams.net" modified="2023-08-22T06:57:44.021Z" agent="Mozilla/5.0 (X11; Linux x86_64) AppleWebKit/537.36 (KHTML, like Gecko) Chrome/115.0.0.0 Safari/537.36" etag="1wvd0swC2yTr-ZJOPNHb" version="21.6.8" type="github">
  <diagram name="Page-1" id="v7MPocIv08fuCZ2IWvXY">
    <mxGraphModel dx="477" dy="1400" grid="1" gridSize="10" guides="1" tooltips="1" connect="1" arrows="1" fold="1" page="1" pageScale="1" pageWidth="850" pageHeight="1100" math="0" shadow="0">
      <root>
        <mxCell id="0" />
        <mxCell id="1" parent="0" />
        <mxCell id="63IOq9YHoVvW6bgtSdvj-19" value="" style="edgeStyle=orthogonalEdgeStyle;rounded=0;orthogonalLoop=1;jettySize=auto;html=1;entryX=0;entryY=0.5;entryDx=0;entryDy=0;" edge="1" parent="1" source="63IOq9YHoVvW6bgtSdvj-1" target="63IOq9YHoVvW6bgtSdvj-18">
          <mxGeometry relative="1" as="geometry" />
        </mxCell>
        <mxCell id="63IOq9YHoVvW6bgtSdvj-1" value="Computer" style="shape=umlActor;verticalLabelPosition=bottom;verticalAlign=top;html=1;outlineConnect=0;" vertex="1" parent="1">
          <mxGeometry x="90" y="330" width="30" height="60" as="geometry" />
        </mxCell>
        <mxCell id="63IOq9YHoVvW6bgtSdvj-9" value="" style="rounded=0;whiteSpace=wrap;html=1;movable=0;resizable=0;rotatable=0;deletable=0;editable=0;locked=1;connectable=0;fillColor=none;" vertex="1" parent="1">
          <mxGeometry x="185" y="170" width="240" height="380" as="geometry" />
        </mxCell>
        <mxCell id="63IOq9YHoVvW6bgtSdvj-21" style="edgeStyle=orthogonalEdgeStyle;rounded=0;orthogonalLoop=1;jettySize=auto;html=1;entryX=1;entryY=0.5;entryDx=0;entryDy=0;" edge="1" parent="1" source="63IOq9YHoVvW6bgtSdvj-17" target="63IOq9YHoVvW6bgtSdvj-23">
          <mxGeometry relative="1" as="geometry">
            <mxPoint x="315" y="410" as="targetPoint" />
          </mxGeometry>
        </mxCell>
        <mxCell id="63IOq9YHoVvW6bgtSdvj-17" value="Player" style="shape=umlActor;verticalLabelPosition=bottom;verticalAlign=top;html=1;outlineConnect=0;" vertex="1" parent="1">
          <mxGeometry x="510" y="330" width="30" height="60" as="geometry" />
        </mxCell>
        <mxCell id="63IOq9YHoVvW6bgtSdvj-18" value="Random Angka" style="ellipse;whiteSpace=wrap;html=1;verticalAlign=middle;" vertex="1" parent="1">
          <mxGeometry x="217.5" y="270" width="175" height="60" as="geometry" />
        </mxCell>
        <mxCell id="63IOq9YHoVvW6bgtSdvj-23" value="Tebak Angka" style="ellipse;whiteSpace=wrap;html=1;verticalAlign=middle;" vertex="1" parent="1">
          <mxGeometry x="217.5" y="400" width="175" height="70" as="geometry" />
        </mxCell>
        <mxCell id="63IOq9YHoVvW6bgtSdvj-24" value="&lt;font style=&quot;font-size: 19px;&quot;&gt;Tebak Angka&lt;/font&gt;" style="text;html=1;strokeColor=none;fillColor=none;align=center;verticalAlign=middle;whiteSpace=wrap;rounded=0;fontStyle=1;fontFamily=Verdana;" vertex="1" parent="1">
          <mxGeometry x="230" y="180" width="150" height="40" as="geometry" />
        </mxCell>
      </root>
    </mxGraphModel>
  </diagram>
</mxfile>
